<?xml version="1.0" encoding="utf-8"?>
<!-- Generator: Adobe Illustrator 26.5.0, SVG Export Plug-In . SVG Version: 6.00 Build 0)  -->
<svg version="1.1" id="Layer_1" xmlns="http://www.w3.org/2000/svg" xmlns:xlink="http://www.w3.org/1999/xlink" x="0px" y="0px"
	 viewBox="0 0 48 48" style="enable-background:new 0 0 48 48;" xml:space="preserve">
<style type="text/css">
	.st0{fill:#FF0000;}
</style>
<g>
	<g>
		<path class="st0" d="M13,28H9c-1.1,0-2,0.9-2,2s0.9,2,2,2h4c1.1,0,2-0.9,2-2S14.1,28,13,28z M13,31H9c-0.6,0-1-0.4-1-1s0.4-1,1-1
			h4c0.6,0,1,0.4,1,1S13.6,31,13,31z"/>
		<path class="st0" d="M43,0c-1,0-2,0.3-2.8,0.9C38.3,2,26.2,9.3,19.8,13H17c-1.1,0-2.1,0.8-2.4,1.8l-2.4,8.8
			C12.2,23.8,12,24,11.7,24H5.5C4.1,24,3,25.1,3,26.5v8.8c-3.2,2.2-4,6.6-1.7,9.7c1.3,1.9,3.5,3,5.7,3h22c3.9,0,7-3.1,7-7
			c0-2.3-1.1-4.4-3-5.7v-9.9c0-0.6-0.1-1.3-0.4-1.9l-1.2-2.7c2.7-2.2,5.3-4.3,8-6.4c0.2,1.3,1.4,9.3,1.5,10.1l-3,1.6
			c-0.7,0.4-1,1.3-0.6,2c0.1,0.1,0.2,0.3,0.3,0.4l1,0.9c0.9,0.9,2.1,1.5,3.3,1.6c3,0.3,5.8-1.9,6.1-4.9c0-0.2,0-0.4,0-0.5V5
			C48,2.2,45.8,0,43,0z M35,41c0,3.3-2.7,6-6,6H7c-3.3,0-6-2.7-6-6s2.7-6,6-6h22C32.3,35,35,37.7,35,41z M32,25.4v9.3
			c-0.9-0.5-2-0.7-3-0.7H7c-1,0-2.1,0.2-3,0.7v-8.2C4,25.7,4.7,25,5.5,25h6.2c0.7,0,1.3-0.4,1.4-1.1l2.4-8.8
			c0.2-0.7,0.8-1.1,1.4-1.1h4v8.5c0,1.4,1.1,2.5,2.5,2.5H32C32,25.1,32,25.2,32,25.4z M31.7,23.9C31.7,23.9,31.7,24,31.7,23.9
			L23.5,24c-0.8,0-1.5-0.7-1.5-1.5V14h4.2c0.6,0,1.1,0.3,1.4,0.9L31.7,23.9z M30.9,19.8l-2.4-5.4c-0.4-0.9-1.3-1.5-2.3-1.5h-4.4
			c5.2-3,12.7-7.5,16.6-9.9c-0.4,1-0.5,2.1-0.2,3.2c0.1,0.9,0.4,2.9,1,6.9C36.4,15.4,33.7,17.6,30.9,19.8z M47,25.5
			c0,2.5-2.1,4.5-4.6,4.5c-0.2,0-0.3,0-0.5,0c-1-0.1-2-0.6-2.7-1.3l-1-0.9c-0.2-0.2-0.2-0.5,0-0.7c0,0,0.1-0.1,0.1-0.1l8.6-4.6V25.5
			z M47,21.2L41.8,24c-0.1-0.8-1.9-12.7-2.3-15.4c1.9,1.9,5.1,1.9,7,0C46.7,8.4,46.9,8.2,47,8C47,10.3,47,20.5,47,21.2L47,21.2z
			 M43,9c-1.9,0-3.5-1.3-3.9-3.2c-0.5-2.2,0.9-4.3,3.1-4.7c2.2-0.5,4.3,0.9,4.7,3.1c0.5,2.2-0.9,4.3-3.1,4.7C43.6,9,43.3,9,43,9z"/>
		<path class="st0" d="M43,3c-1.1,0-2,0.9-2,2s0.9,2,2,2s2-0.9,2-2S44.1,3,43,3z M43,6c-0.6,0-1-0.4-1-1s0.4-1,1-1s1,0.4,1,1
			S43.6,6,43,6z"/>
		<path class="st0" d="M8,38c-1.7,0-3,1.3-3,3s1.3,3,3,3s3-1.3,3-3S9.7,38,8,38z M8,43c-1.1,0-2-0.9-2-2s0.9-2,2-2s2,0.9,2,2
			S9.1,43,8,43z"/>
		<path class="st0" d="M18,38c-1.7,0-3,1.3-3,3s1.3,3,3,3s3-1.3,3-3S19.7,38,18,38z M18,43c-1.1,0-2-0.9-2-2s0.9-2,2-2s2,0.9,2,2
			S19.1,43,18,43z"/>
		<path class="st0" d="M25,41c0,1.7,1.3,3,3,3s3-1.3,3-3s-1.3-3-3-3S25,39.3,25,41z M30,41c0,1.1-0.9,2-2,2s-2-0.9-2-2s0.9-2,2-2
			S30,39.9,30,41z"/>
	</g>
</g>
</svg>
