<svg width="18" height="18" viewBox="0 0 18 18" fill="none" xmlns="http://www.w3.org/2000/svg">
<g id="filter 1">
<path id="Vector" d="M7.7475 12.4447H3.02197" stroke="#060047" stroke-width="1.5" stroke-linecap="round" stroke-linejoin="round"/>
<path id="Vector_2" d="M9.85545 5.17532H14.581" stroke="#060047" stroke-width="1.5" stroke-linecap="round" stroke-linejoin="round"/>
<path id="Vector_3" fill-rule="evenodd" clip-rule="evenodd" d="M6.54472 5.13469C6.54472 4.16295 5.7511 3.375 4.77236 3.375C3.79362 3.375 3 4.16295 3 5.13469C3 6.10643 3.79362 6.89438 4.77236 6.89438C5.7511 6.89438 6.54472 6.10643 6.54472 5.13469Z" stroke="#060047" stroke-width="1.5" stroke-linecap="round" stroke-linejoin="round"/>
<path id="Vector_4" fill-rule="evenodd" clip-rule="evenodd" d="M15.0002 12.4153C15.0002 11.4436 14.2072 10.6556 13.2284 10.6556C12.2491 10.6556 11.4554 11.4436 11.4554 12.4153C11.4554 13.387 12.2491 14.175 13.2284 14.175C14.2072 14.175 15.0002 13.387 15.0002 12.4153Z" stroke="#060047" stroke-width="1.5" stroke-linecap="round" stroke-linejoin="round"/>
</g>
</svg>
