<?xml version="1.0" encoding="UTF-8"?>
<svg id="Layer_1" data-name="Layer 1" xmlns="http://www.w3.org/2000/svg" viewBox="0 0 601.13 321.63">
  <defs>
    <style>
      .cls-1 {
        fill: #f63;
        fill-rule: evenodd;
      }
    </style>
  </defs>
  <path class="cls-1" d="M300.56,.21h0Zm0,220.43h0c19.56,0,37.34-8.01,50.24-20.91,12.9-12.9,20.91-30.68,20.91-50.24v-45.4c0-4.46,3.62-8.08,8.08-8.08s8.08,3.62,8.08,8.08v45.4c0,24.02-9.82,45.85-25.64,61.67-14.03,14.03-32.78,23.34-53.59,25.27v69.03h38.67c4.46,0,8.08,3.62,8.08,8.08s-3.62,8.08-8.08,8.08h-93.5c-4.46,0-8.08-3.62-8.08-8.08s3.62-8.08,8.08-8.08h38.67v-69.03c-20.81-1.93-39.56-11.24-53.59-25.27-15.82-15.82-25.64-37.65-25.64-61.67v-45.4c0-4.46,3.62-8.08,8.08-8.08s8.08,3.62,8.08,8.08v45.4c0,19.56,8.01,37.34,20.91,50.24,12.9,12.9,30.69,20.91,50.24,20.91h0Zm0-220.43c27.4,0,50.26,20.42,54.11,46.8h-27.33c-2.68,0-4.85,2.17-4.85,4.85s2.17,4.85,4.85,4.85h27.91v21.54h-27.91c-2.68,0-4.85,2.17-4.85,4.85s2.17,4.85,4.85,4.85h27.91v21.54h-27.91c-2.68,0-4.85,2.17-4.85,4.85s2.17,4.85,4.85,4.85h27.91v28c0,30.08-24.61,54.69-54.69,54.69h0c-30.08,0-54.69-24.61-54.69-54.69v-28h27.91c2.68,0,4.85-2.17,4.85-4.85s-2.17-4.85-4.85-4.85h-27.91v-21.54h27.91c2.68,0,4.85-2.17,4.85-4.85s-2.17-4.85-4.85-4.85h-27.91v-21.54h27.91c2.68,0,4.85-2.17,4.85-4.85s-2.17-4.85-4.85-4.85h-27.33C250.31,20.64,273.16,.21,300.56,.21Z"/>
  <path class="cls-1" d="M0,54.22c0-2.88,2.34-5.22,5.22-5.22s5.22,2.34,5.22,5.22v91.11c0,2.88-2.34,5.22-5.22,5.22s-5.22-2.34-5.22-5.22V54.22H0Zm590.69,0c0-2.88,2.34-5.22,5.22-5.22s5.22,2.34,5.22,5.22v91.11c0,2.88-2.34,5.22-5.22,5.22s-5.22-2.34-5.22-5.22V54.22h0Zm-24.5-29.48c0-2.88,2.34-5.22,5.22-5.22s5.22,2.34,5.22,5.22V174.81c0,2.88-2.34,5.22-5.22,5.22s-5.22-2.34-5.22-5.22V24.74h0Zm-22.2-19.52c0-2.88,2.34-5.22,5.22-5.22s5.22,2.34,5.22,5.22V194.34c0,2.88-2.34,5.22-5.22,5.22s-5.22-2.34-5.22-5.22V5.22h0Zm-22.2,34.84c0-2.88,2.34-5.22,5.22-5.22s5.22,2.34,5.22,5.22v119.44c0,2.88-2.34,5.22-5.22,5.22s-5.22-2.34-5.22-5.22V40.06h0Zm-23.74-15.31c0-2.88,2.34-5.22,5.22-5.22s5.22,2.34,5.22,5.22V174.81c0,2.88-2.34,5.22-5.22,5.22s-5.22-2.34-5.22-5.22V24.74h0Zm-20.66,29.09c0-2.88,2.34-5.22,5.22-5.22s5.22,2.34,5.22,5.22v91.88c0,2.88-2.34,5.22-5.22,5.22s-5.22-2.34-5.22-5.22V53.84h0Zm-25.27-11.48c0-2.88,2.34-5.22,5.22-5.22s5.22,2.34,5.22,5.22v114.85c0,2.88-2.34,5.22-5.22,5.22s-5.22-2.34-5.22-5.22V42.35h0Zm-22.2-15.31c0-2.88,2.34-5.22,5.22-5.22s5.22,2.34,5.22,5.22V172.52c0,2.88-2.34,5.22-5.22,5.22s-5.22-2.34-5.22-5.22V27.04h0Zm-23.74-17.23c0-2.88,2.34-5.22,5.22-5.22s5.22,2.34,5.22,5.22V189.74c0,2.88-2.34,5.22-5.22,5.22s-5.22-2.34-5.22-5.22V9.81h0ZM24.5,24.74c0-2.88,2.34-5.22,5.22-5.22s5.22,2.34,5.22,5.22V174.81c0,2.88-2.34,5.22-5.22,5.22s-5.22-2.34-5.22-5.22V24.74h0ZM46.71,5.22c0-2.88,2.34-5.22,5.22-5.22s5.22,2.34,5.22,5.22V194.34c0,2.88-2.34,5.22-5.22,5.22s-5.22-2.34-5.22-5.22V5.22h0Zm22.2,34.84c0-2.88,2.34-5.22,5.22-5.22s5.22,2.34,5.22,5.22v119.44c0,2.88-2.34,5.22-5.22,5.22s-5.22-2.34-5.22-5.22V40.06h0Zm23.74-15.31c0-2.88,2.34-5.22,5.22-5.22s5.22,2.34,5.22,5.22V174.81c0,2.88-2.34,5.22-5.22,5.22s-5.22-2.34-5.22-5.22V24.74h0Zm20.66,29.09c0-2.88,2.34-5.22,5.22-5.22s5.22,2.34,5.22,5.22v91.88c0,2.88-2.34,5.22-5.22,5.22s-5.22-2.34-5.22-5.22V53.84h0Zm25.27-11.48c0-2.88,2.34-5.22,5.22-5.22s5.22,2.34,5.22,5.22v114.85c0,2.88-2.34,5.22-5.22,5.22s-5.22-2.34-5.22-5.22V42.35h0Zm22.2-15.31c0-2.88,2.34-5.22,5.22-5.22s5.22,2.34,5.22,5.22V172.52c0,2.88-2.34,5.22-5.22,5.22s-5.22-2.34-5.22-5.22V27.04h0Zm23.74-17.23c0-2.88,2.34-5.22,5.22-5.22s5.22,2.34,5.22,5.22V189.74c0,2.88-2.34,5.22-5.22,5.22s-5.22-2.34-5.22-5.22V9.81Z"/>
</svg>