<?xml version="1.0" encoding="utf-8"?>
<!-- Generator: Adobe Illustrator 26.5.0, SVG Export Plug-In . SVG Version: 6.00 Build 0)  -->
<svg version="1.1" xmlns="http://www.w3.org/2000/svg" xmlns:xlink="http://www.w3.org/1999/xlink" x="0px" y="0px"
	 viewBox="0 0 100 101.2" style="enable-background:new 0 0 100 101.2;" xml:space="preserve">
<g id="Layer_2">
</g>
<g id="Layer_1">
	<g>
		<path d="M5273.1,2400.1v-2c0-2.8-5-4-9.7-4s-9.7,1.3-9.7,4v2c0,1.8,0.7,3.6,2,4.9l5,4.9c0.3,0.3,0.4,0.6,0.4,1v6.4
			c0,0.4,0.2,0.7,0.6,0.8l2.9,0.9c0.5,0.1,1-0.2,1-0.8v-7.2c0-0.4,0.2-0.7,0.4-1l5.1-5C5272.4,2403.7,5273.1,2401.9,5273.1,2400.1z
			 M5263.4,2400c-4.8,0-7.4-1.3-7.5-1.8l0,0c0.1-0.5,2.7-1.8,7.5-1.8s7.3,1.3,7.5,1.8C5270.7,2398.7,5268.2,2400,5263.4,2400z"/>
		<path d="M5268.4,2410.3c-0.6,0-1,0.4-1,1s0.4,1,1,1h4.3c0.6,0,1-0.4,1-1s-0.4-1-1-1H5268.4z"/>
		<path d="M5272.7,2413.7h-4.3c-0.6,0-1,0.4-1,1s0.4,1,1,1h4.3c0.6,0,1-0.4,1-1C5273.7,2414.1,5273.3,2413.7,5272.7,2413.7z"/>
		<path d="M5272.7,2417h-4.3c-0.6,0-1,0.4-1,1s0.4,1,1,1h4.3c0.6,0,1-0.4,1-1C5273.7,2417.5,5273.3,2417,5272.7,2417z"/>
	</g>
	<path d="M55,7.5c-22,0-40.2,16.8-42.3,38.3h-6c-2.3,0-4.2,1.9-4.2,4.2s1.9,4.2,4.2,4.2h32.4c1.6,0,3-0.9,3.7-2.3l3.5-6.8L57,65.8
		c0.7,1.4,2.1,2.3,3.7,2.3c1.6,0,3-0.9,3.7-2.3l6-11.7h6c2.3,0,4.2-1.9,4.2-4.2s-1.9-4.2-4.2-4.2h-8.5c-1.6,0-3,0.9-3.7,2.3
		l-3.5,6.8L50,34.2c-1.4-2.8-6-2.8-7.4,0l-6,11.7H21.1c2.1-16.9,16.5-30,33.9-30c18.8,0,34.2,15.3,34.2,34.2S73.8,84.2,55,84.2
		c-14.2,0-26.5-8.8-31.6-21.2h-8.9C20,80.1,36.1,92.5,55,92.5c23.4,0,42.5-19.1,42.5-42.5S78.4,7.5,55,7.5z"/>
</g>
</svg>
