<?xml version="1.0" encoding="utf-8"?>
<!-- Generator: Adobe Illustrator 26.5.0, SVG Export Plug-In . SVG Version: 6.00 Build 0)  -->
<svg version="1.1" id="Layer_1" xmlns="http://www.w3.org/2000/svg" xmlns:xlink="http://www.w3.org/1999/xlink" x="0px" y="0px"
	 viewBox="0 0 333 194" style="enable-background:new 0 0 333 194;" xml:space="preserve">
<style type="text/css">
	.st0{fill:#0BD000;}
</style>
<g>
	<path class="st0" d="M241,0v8h-31c-8,47-12,75-20,125h-37c8,5,14,14,15,23h11v-13h51v13h6c2-9,7-16,14-21h-27V20h62
		c12,0,27,23,32,33c8,15,15,32,16,47v41c0,14-11,26-26,26h-6c-2,16-16,27-32,27c-17,0-32-13-33-30h-6v12h-51v-12h-10
		c-2,17-16,30-33,30s-32-13-33-30H86c-1,17-16,30-33,30c-18,0-33-14-33-33c0-12,7-22,16-28H16L1,112l-1-3c3-21,7-45,9-62h2
		c44-21,84-32,118-32c27,0,51,8,68,23l6-38H241z M119,133H71c8,5,14,14,15,24h17C105,147,110,138,119,133z M302,159h5
		c10,0,19-8,19-18v-35l-44-11l-2-2l-12-16v-2V35h27c-4-5-7-7-10-7h-54v99h37C285,127,301,142,302,159z M301,42h-26v32l11,14l39,10
		c-2-13-7-28-14-41C308,52,305,47,301,42z M269,154c4,0,8,3,8,7c0,5-4,8-8,8s-8-3-8-8C261,157,265,154,269,154z M53,154c5,0,8,3,8,7
		c0,5-3,8-8,8c-4,0-7-3-7-8C46,157,49,154,53,154z M136,154c4,0,8,3,8,7c0,5-4,8-8,8s-8-3-8-8C128,157,132,154,136,154z M53,136
		c-14,0-25,11-25,25s11,26,25,26s26-12,26-26l0,0l0,0v-1l0,0l0,0l0,0C78,147,67,136,53,136z M269,136c-34,0-33,51,0,51
		c14,0,25-12,25-26S283,136,269,136z M222,150h-35c0,6,0,12,0,18h35V150z M136,136c-33,0-34,51,0,51C169,187,169,136,136,136z
		 M29,47h167c-17-16-40-24-67-25C100,22,66,31,29,47z M58,55l-4,33h14v7H45l5-40H16l-8,53l12,18h163l11-71h-62l-4,33h14v7h-23l5-40
		H95l-4,33h14v7H82l5-40H58z"/>
</g>
</svg>
